#!OML:ASF F:\VICON\USERDATA\INSTALL\rory3\rory3.ASF
:FULLY-SPECIFIED
:DEGREES
786
root 2.56544 9.70205 -5.41182 -14.2786 -5.06579 1.21272
lowerback 29.7576 -0.525781 -1.01645
upperback 13.1059 -0.994335 0.31726
thorax -1.56491 -0.582674 1.22794
lowerneck -17.1777 -8.16705 -16.3065
upperneck 10.9252 -7.87224 5.1451
head 6.99393 -4.06636 3.34464
rclavicle -1.97791e-014 2.18663e-015
rhumerus -10.5665 22.357 -83.6834
rradius 94.419
rwrist 30.2169
rhand -34.8157 11.5725
rfingers 7.12502
rthumb -7.96689 -18.2573
lclavicle -1.97791e-014 2.18663e-015
lhumerus -11.6084 -14.9377 86.94
lradius 91.2396
lwrist -23.2609
lhand -28.8813 18.1082
lfingers 7.12502
lthumb -2.23703 48.0762
rfemur -81.8836 -11.4867 23.7214
rtibia 107.458
rfoot -5.46379 3.46003
rtoes 7.72362
lfemur -81.4435 11.5539 -24.1524
ltibia 103.631
lfoot -6.47834 -10.1668
ltoes -6.87197
787
root 2.56482 9.70304 -5.41096 -14.2228 -5.0705 1.23089
lowerback 29.7599 -0.503281 -1.0752
upperback 13.127 -0.981716 0.309268
thorax -1.54112 -0.578994 1.24888
lowerneck -17.2864 -8.08684 -16.2361
upperneck 11.1752 -7.7584 5.10826
head 7.07787 -4.01743 3.33284
rclavicle 1.45113e-014 -1.96797e-014
rhumerus -10.4031 22.3893 -83.6113
rradius 94.3551
rwrist 30.2426
rhand -34.8519 11.5135
rfingers 7.12502
rthumb -8.00183 -18.315
lclavicle 1.45113e-014 -1.96797e-014
lhumerus -11.549 -14.9065 86.9431
lradius 91.25
lwrist -23.3434
lhand -28.8467 18.0594
lfingers 7.12502
lthumb -2.20362 48.0278
rfemur -81.9448 -11.4693 23.7148
rtibia 107.465
rfoot -5.47114 3.44006
rtoes 7.58587
lfemur -81.4998 11.5526 -24.1687
ltibia 103.618
lfoot -6.4662 -10.1509
ltoes -6.86633
788
root 2.56365 9.70428 -5.41075 -14.1452 -5.02539 1.33053
lowerback 29.7423 -0.496108 -1.20954
upperback 13.0886 -1.00881 0.270658
thorax -1.57427 -0.595829 1.29168
lowerneck -17.2388 -7.96565 -16.1806
upperneck 11.3859 -7.60825 5.03958
head 7.11913 -3.95575 3.32206
rclavicle -6.75868e-015 5.36719e-015
rhumerus -10.4826 22.4572 -83.6268
rradius 94.379
rwrist 30.2623
rhand -34.8557 11.3922
rfingers 7.12502
rthumb -8.00554 -18.4362
lclavicle -6.75868e-015 5.36719e-015
lhumerus -11.6102 -14.8403 86.9542
lradius 91.2644
lwrist -23.3876
lhand -28.9146 17.9574
lfingers 7.12502
lthumb -2.26924 47.9251
rfemur -82.0399 -11.5023 23.6072
rtibia 107.49
rfoot -5.47439 3.47734
rtoes 7.78843
lfemur -81.5422 11.4683 -24.2554
ltibia 103.565
lfoot -6.39241 -10.1127
ltoes -6.46316
789
root 2.56339 9.70602 -5.40992 -14.0423 -5.01241 1.39834
lowerback 29.7389 -0.483042 -1.30401
upperback 13.0121 -1.01718 0.257089
thorax -1.65771 -0.601824 1.3343
lowerneck -17.1741 -7.8502 -16.2452
upperneck 11.685 -7.45466 5.06061
head 7.19516 -3.89298 3.35986
rclavicle 1.83876e-014 -2.06736e-014
rhumerus -10.6972 22.4721 -83.6711
rradius 94.4805
rwrist 30.364
rhand -34.8621 11.4281
rfingers 7.12502
rthumb -8.01168 -18.4
lclavicle 1.83876e-014 -2.06736e-014
lhumerus -11.7802 -14.782 87.0544
lradius 91.338
lwrist -23.4083
lhand -28.9173 17.9231
lfingers 7.12502
lthumb -2.27183 47.8907
rfemur -82.1338 -11.5056 23.5282
rtibia 107.501
rfoot -5.49641 3.5295
rtoes 7.7621
lfemur -81.634 11.441 -24.328
ltibia 103.521
lfoot -6.38615 -10.1416
ltoes -6.43882
790
root 2.56632 9.70982 -5.40823 -13.9746 -5.00322 1.41767
lowerback 29.7766 -0.489155 -1.29924
upperback 12.9831 -1.02503 0.234016
thorax -1.70798 -0.603818 1.30951
lowerneck -17.3394 -7.73006 -16.2056
upperneck 12.177 -7.26887 5.01164
head 7.3629 -3.81866 3.35654
rclavicle 6.95746e-016 4.37326e-015
rhumerus -10.7736 22.477 -83.6773
rradius 94.5169
rwrist 30.4024
rhand -34.9694 11.3955
rfingers 7.12502
rthumb -8.11522 -18.4286
lclavicle 6.95746e-016 4.37326e-015
lhumerus -11.9299 -14.7665 87.1162
lradius 91.4564
lwrist -23.4243
lhand -28.9389 17.9638
lfingers 7.12502
lthumb -2.29265 47.9313
rfemur -82.177 -11.556 23.5105
rtibia 107.494
rfoot -5.52823 3.5617
rtoes 7.67566
lfemur -81.6681 11.4024 -24.3557
ltibia 103.468
lfoot -6.32478 -10.1535
ltoes -5.89962
791
root 2.56898 9.71688 -5.40598 -13.8904 -5.06065 1.46429
lowerback 29.7396 -0.464505 -1.33017
upperback 12.9864 -1.00471 0.18183
thorax -1.68887 -0.593475 1.26321
lowerneck -17.5847 -7.56728 -16.0171
upperneck 12.7367 -7.02603 4.831
head 7.55073 -3.72303 3.29259
rclavicle -8.44835e-015 1.32192e-014
rhumerus -10.8027 22.467 -83.7299
rradius 94.5307
rwrist 30.4769
rhand -34.9924 11.4706
rfingers 7.12502
rthumb -8.13741 -18.3528
lclavicle -8.44835e-015 1.32192e-014
lhumerus -12.0264 -14.763 87.1108
lradius 91.5595
lwrist -23.5453
lhand -28.9724 18.1231
lfingers 7.12502
lthumb -2.32503 48.0902
rfemur -82.2328 -11.5103 23.4446
rtibia 107.474
rfoot -5.55587 3.65887
rtoes 7.68251
lfemur -81.6489 11.4174 -24.3754
ltibia 103.374
lfoot -6.30156 -10.1969
ltoes -5.47852
792
root 2.56887 9.72385 -5.40504 -13.8414 -5.11805 1.38236
lowerback 29.7614 -0.446762 -1.27737
upperback 13.0012 -0.969037 0.187459
thorax -1.68386 -0.574276 1.22868
lowerneck -17.634 -7.42821 -15.8864
upperneck 13.1486 -6.83821 4.67539
head 7.66696 -3.65293 3.24378
rclavicle 1.66979e-014 -3.97569e-016
rhumerus -10.9175 22.4388 -83.764
rradius 94.6279
rwrist 30.5197
rhand -35.0618 11.6509
rfingers 7.12502
rthumb -8.20438 -18.1698
lclavicle 1.66979e-014 -3.97569e-016
lhumerus -12.0287 -14.7696 87.0967
lradius 91.6342
lwrist -23.6037
lhand -28.8472 18.2353
lfingers 7.12502
lthumb -2.2041 48.2036
rfemur -82.225 -11.4232 23.5324
rtibia 107.422
rfoot -5.64552 3.62676
rtoes 6.83976
lfemur -81.6301 11.4498 -24.2456
ltibia 103.321
lfoot -6.36714 -10.2353
ltoes -5.66555
